<svg xmlns="http://www.w3.org/2000/svg" aria-hidden="true" style="position:absolute;width:0;height:0;overflow:hidden">
  <defs>
    <symbol id="icon-menu" viewBox="0 0 32 32">
    <path d="M3.717 7.038c-0.456 0.089-0.693 0.417-0.693 0.962 0 0.616 0.277 0.924 0.885 0.985 0.182 0.019 5.755 0.027 12.384 0.018 11.943-0.016 12.055-0.017 12.235-0.123 0.364-0.214 0.528-0.637 0.436-1.126-0.040-0.274-0.203-0.503-0.432-0.632l-0.004-0.002c-0.18-0.106-0.284-0.107-12.395-0.114-6.717-0.004-12.305 0.010-12.416 0.032zM3.717 12.371c-0.456 0.089-0.693 0.418-0.693 0.962 0 0.616 0.277 0.924 0.885 0.986 0.182 0.018 5.755 0.026 12.384 0.017 11.943-0.016 12.055-0.017 12.235-0.123 0.233-0.13 0.396-0.359 0.435-0.628l0.001-0.005c0.092-0.49-0.072-0.912-0.436-1.127-0.18-0.105-0.284-0.106-12.395-0.114-6.717-0.004-12.305 0.010-12.416 0.032zM3.717 17.705c-0.456 0.089-0.693 0.417-0.693 0.962 0 0.616 0.277 0.924 0.885 0.985 0.182 0.018 5.755 0.026 12.384 0.017 11.943-0.016 12.055-0.017 12.235-0.122 0.364-0.215 0.528-0.637 0.436-1.127-0.040-0.274-0.203-0.503-0.432-0.631l-0.004-0.002c-0.18-0.106-0.284-0.107-12.395-0.115-6.717-0.004-12.305 0.011-12.416 0.033zM3.717 23.038c-0.456 0.089-0.693 0.417-0.693 0.962 0 0.616 0.277 0.924 0.885 0.985 0.182 0.019 5.755 0.027 12.384 0.018 11.943-0.016 12.055-0.017 12.235-0.123 0.364-0.214 0.528-0.637 0.436-1.126-0.040-0.274-0.203-0.503-0.432-0.632l-0.004-0.002c-0.18-0.106-0.284-0.107-12.395-0.114-6.717-0.004-12.305 0.010-12.416 0.032z"></path>
    </symbol>
  </defs>
</svg>
